<svg width="24" height="24" viewBox="0 0 24 24" fill="none" xmlns="http://www.w3.org/2000/svg">
<path d="M3.29289 15.2929C2.90237 15.6834 2.90237 16.3166 3.29289 16.7071C3.68342 17.0976 4.31658 17.0976 4.70711 16.7071L3.29289 15.2929ZM8.58579 11.4142L9.29289 12.1213H9.29289L8.58579 11.4142ZM11.4142 11.4142L12.1213 10.7071V10.7071L11.4142 11.4142ZM15.2929 16.7071C15.6834 17.0976 16.3166 17.0976 16.7071 16.7071C17.0976 16.3166 17.0976 15.6834 16.7071 15.2929L15.2929 16.7071ZM13.2929 13.2929C12.9024 13.6834 12.9024 14.3166 13.2929 14.7071C13.6834 15.0976 14.3166 15.0976 14.7071 14.7071L13.2929 13.2929ZM18.4142 12.4142L17.7071 13.1213L18.4142 12.4142ZM19.2929 14.7071C19.6834 15.0976 20.3166 15.0976 20.7071 14.7071C21.0976 14.3166 21.0976 13.6834 20.7071 13.2929L19.2929 14.7071ZM14 7C13.4477 7 13 7.44772 13 8C13 8.55228 13.4477 9 14 9V7ZM14.01 9C14.5623 9 15.01 8.55228 15.01 8C15.01 7.44772 14.5623 7 14.01 7V9ZM6 5H18V3H6V5ZM19 6V18H21V6H19ZM18 19H6V21H18V19ZM5 18V6H3V18H5ZM6 19C5.44772 19 5 18.5523 5 18H3C3 19.6569 4.34315 21 6 21V19ZM19 18C19 18.5523 18.5523 19 18 19V21C19.6569 21 21 19.6569 21 18H19ZM18 5C18.5523 5 19 5.44772 19 6H21C21 4.34315 19.6569 3 18 3V5ZM6 3C4.34315 3 3 4.34315 3 6H5C5 5.44772 5.44772 5 6 5V3ZM4.70711 16.7071L9.29289 12.1213L7.87868 10.7071L3.29289 15.2929L4.70711 16.7071ZM10.7071 12.1213L15.2929 16.7071L16.7071 15.2929L12.1213 10.7071L10.7071 12.1213ZM9.29289 12.1213C9.68342 11.7308 10.3166 11.7308 10.7071 12.1213L12.1213 10.7071C10.9497 9.53553 9.05025 9.53553 7.87868 10.7071L9.29289 12.1213ZM14.7071 14.7071L16.2929 13.1213L14.8787 11.7071L13.2929 13.2929L14.7071 14.7071ZM17.7071 13.1213L19.2929 14.7071L20.7071 13.2929L19.1213 11.7071L17.7071 13.1213ZM16.2929 13.1213C16.6834 12.7308 17.3166 12.7308 17.7071 13.1213L19.1213 11.7071C17.9497 10.5355 16.0503 10.5355 14.8787 11.7071L16.2929 13.1213ZM14 9H14.01V7H14V9Z" fill="white"/>
</svg>
